<?xml version="1.0" encoding="utf-8"?>

<svg version="1.1" id="logo" xmlns="http://www.w3.org/2000/svg" xmlns:xlink="http://www.w3.org/1999/xlink" viewBox="0 0 262.7999878 44.6399994" style="enable-background:new 0 0 262.7999878 44.6399994;" xml:space="preserve">

<style type="text/css">
	.st0{fill:#FFEEBB;}
	.st1{fill:#B7B7B7;}
</style>

<path id="wieland" class="st0" d="M155.8276672,18.4160671h4.3525391v4.3530273h-4.3525391V18.4160671z M155.8276672,43.8071785
	V25.6704617h4.3525391v18.1367168H155.8276672z M178.8608704,36.9971199h-9.5039063
	c0.2412109,0.5566406,0.5917969,1.0517578,1.0517578,1.4873047c0.5078125,0.5078125,1.0761719,0.8886719,1.7050781,1.1425781
	s1.2929688,0.3808594,1.9951172,0.3808594c0.9912109,0,1.8740234-0.2294922,2.6474609-0.6894531l4.5341797,1.8134766
	c-0.8701172,1.015625-1.921875,1.8076172-3.1552734,2.3759766s-2.5751953,0.8525391-4.0263672,0.8525391
	c-1.3300781,0-2.5751953-0.2480469-3.7363281-0.7441406c-1.1611328-0.4951172-2.1767578-1.1787109-3.046875-2.0488281
	c-0.8710938-0.8710938-1.5537109-1.8867188-2.0498047-3.046875c-0.4960938-1.1611328-0.7431641-2.3945313-0.7431641-3.7001953
	c0-1.3291016,0.2470703-2.5751953,0.7431641-3.7363262c0.4960938-1.1601563,1.1787109-2.1757813,2.0498047-3.046875
	c0.8701172-0.8701172,1.8857422-1.5537109,3.046875-2.0488281c1.1611328-0.4960938,2.40625-0.7441406,3.7363281-0.7441406
	c1.3291016,0,2.5751953,0.2480469,3.7363281,0.7441406c1.1601563,0.4951172,2.1757813,1.1787109,3.046875,2.0488281
	c0.8701172,0.8710938,1.5527344,1.8867188,2.0488281,3.046875c0.4960938,1.1611309,0.7441406,2.4072247,0.7441406,3.7363262
	c0,0.7744141-0.0849609,1.5-0.2539063,2.1767578H178.8608704z M174.1089172,29.5967312
	c-1.4033203,0-2.6357422,0.5078125-3.7001953,1.5234375c-0.4599609,0.4599609-0.8105469,0.9677715-1.0517578,1.5234356h9.5039063
	c-0.2421875-0.5556641-0.5927734-1.0634747-1.0527344-1.5234356
	C176.792511,30.1045437,175.5600891,29.5967312,174.1089172,29.5967312z M188.0376282,43.8887215V18.4976101h4.3525391v25.3911114
	H188.0376282z M215.89505,25.7158718v18.1728497h-4.3525391v-9.0683594c0-1.4511719-0.5078125-2.6845703-1.5244141-3.7001934
	c-1.015625-1.015625-2.2480469-1.5234375-3.6992188-1.5234375c-0.7021484,0-1.3730469,0.1337891-2.0136719,0.3994141
	c-0.640625,0.2666016-1.203125,0.640625-1.6865234,1.1240234c-1.015625,1.0156231-1.5234375,2.2490215-1.5234375,3.7001934
	c0,1.4267578,0.5078125,2.6484375,1.5234375,3.6640625c0.4833984,0.5078125,1.0458984,0.8886719,1.6865234,1.1425781
	s1.3115234,0.3808594,2.0136719,0.3808594c0.7255859,0,1.3779297-0.1210938,1.9589844-0.3632813l1.5595703,3.8818359
	c-1.1132813,0.5556641-2.40625,0.8339844-3.8818359,0.8339844c-1.3300781,0-2.5566406-0.2480469-3.6816406-0.7441406
	c-1.1240234-0.4951172-2.0976563-1.1787109-2.9199219-2.0488281c-0.8222656-0.8710938-1.4628906-1.8867188-1.921875-3.046875
	c-0.4599609-1.1611328-0.6894531-2.3945313-0.6894531-3.7001953c0-1.3291016,0.2294922-2.5751953,0.6894531-3.7363262
	c0.4589844-1.1601563,1.0996094-2.1757813,1.921875-3.046875c0.8222656-0.8701172,1.7958984-1.5537109,2.9199219-2.0488281
	c1.125-0.4960938,2.3515625-0.7441406,3.6816406-0.7441406c1.1845703,0,2.2373047,0.1816406,3.15625,0.5439453
	c0.9189453,0.3632813,1.7285156,0.8222656,2.4306641,1.3789063v-1.4511719H215.89505z M229.5698547,25.2441921
	c1.1845703,0,2.2607422,0.2236328,3.2285156,0.6708984c0.9667969,0.4482422,1.7958984,1.0644531,2.484375,1.8505859
	c0.6894531,0.7861328,1.2216797,1.6992188,1.5966797,2.7382813c0.3740234,1.0400391,0.5615234,2.1523418,0.5615234,3.3369122
	v10.0478516h-4.3525391V33.8408699c0-1.2089844-0.4228516-2.2128887-1.2695313-3.0107403
	c-0.8222656-0.8212891-1.8134766-1.2333984-2.9746094-1.2333984c-1.1845703,0-2.1884766,0.4121094-3.0107422,1.2333984
	c-0.8222656,0.8222656-1.2324219,1.82617-1.2324219,3.0107403v10.0478516h-4.3535156V25.7520046h4.3535156v1.3789063
	c0.6523438-0.5566406,1.3896484-1.0097656,2.2119141-1.3603516S228.5542297,25.2441921,229.5698547,25.2441921z
	 M260.9096985,18.4893093v25.4277325h-4.3535156v-9.0683594c0-1.4746094-0.5078125-2.7080078-1.5234375-3.7001934
	c-1.015625-1.015625-2.2363281-1.5234375-3.6630859-1.5234375c-1.4511719,0-2.6845703,0.5078125-3.7001953,1.5234375
	c-1.015625,1.0156231-1.5234375,2.2490215-1.5234375,3.7001934c0,1.4267578,0.5078125,2.6484375,1.5234375,3.6640625
	c0.4833984,0.5078125,1.0458984,0.8886719,1.6865234,1.1425781s1.3115234,0.3808594,2.0136719,0.3808594
	c0.7011719,0,1.3417969-0.1210938,1.921875-0.3632813l1.5605469,3.8818359
	c-1.1132813,0.5556641-2.3945313,0.8339844-3.8457031,0.8339844c-1.3300781,0-2.5566406-0.2480469-3.6816406-0.7441406
	c-1.1240234-0.4951172-2.0976563-1.1787109-2.9199219-2.0488281c-0.8222656-0.8710938-1.4628906-1.8867188-1.921875-3.046875
	c-0.4599609-1.1611328-0.6894531-2.3945313-0.6894531-3.7001953c0-1.3291016,0.2294922-2.5751953,0.6894531-3.7363262
	c0.4589844-1.1601563,1.0996094-2.1757813,1.921875-3.046875c0.8222656-0.8701172,1.7958984-1.5537109,2.9199219-2.0488281
	c1.125-0.4960938,2.3515625-0.7441406,3.6816406-0.7441406c1.1611328,0,2.2001953,0.1816406,3.1201172,0.5439453
	c0.9189453,0.3632813,1.7285156,0.8222656,2.4296875,1.3789063v-8.7060547H260.9096985z M116.3600769,23.8975735
	l-2.1535034,7.4241333l-2.3341675-7.4241333h-7.6520996l6.2828369,19.991148h7.5886841l5.8392944-19.991148H116.3600769z
	 M142.1006775,23.8975735l-2.1535034,7.4241333l-2.3339233-7.4241333h-7.65448l6.2849731,19.991148h7.5886841l5.8261108-19.991148
	H142.1006775z"/>

<path id="marcus" class="st1" d="M117.6225891,19.5450344l5.265686-18.1532593h7.6497803l5.7068481,18.1532593h-7.654541
	l-1.7562256-5.5862436l-1.6317139,5.5862436H117.6225891z M150.9270325,19.5450344l5.2905273-18.1532593h-7.5886841
	l-5.265686,18.1532593H150.9270325z M110.5039368,19.5450344l-5.7074585-18.1532593h-7.649292l5.7052002,18.1532593H110.5039368z
	 M79.5259094,19.6001492v-1.4506836c0.7016602,0.5556641,1.5112305,1.0151367,2.4301758,1.3779297
	s1.9707031,0.5439453,3.1552734,0.5439453c1.3300781,0,2.5571289-0.2480469,3.6816406-0.7431641
	c1.1240234-0.4960938,2.0976563-1.1787109,2.9194336-2.0493164c0.8222656-0.8706055,1.4633789-1.8862314,1.9223633-3.046876
	c0.4594727-1.1606445,0.6889648-2.40625,0.6889648-3.7358398c0-1.3056641-0.2294922-2.5385742-0.6889648-3.6992188
	c-0.4589844-1.1606445-1.1000977-2.1762695-1.9223633-3.0468748c-0.8217773-0.8706055-1.7954102-1.5537109-2.9194336-2.0493164
	c-1.1245117-0.4951172-2.3515625-0.7436523-3.6816406-0.7436523c-1.4746094,0-2.7685547,0.2783203-3.8808594,0.8344727
	l1.5595703,3.8808594c0.5805664-0.2421875,1.2333984-0.362793,1.9584961-0.362793
	c0.7016602,0,1.3725586,0.1269531,2.0131836,0.3808594s1.203125,0.6347656,1.6865234,1.1425781
	c1.015625,1.015625,1.5234375,2.2363281,1.5234375,3.6630859c0,1.4506836-0.5078125,2.684082-1.5234375,3.699707
	c-0.4833984,0.4833984-1.0458984,0.8579102-1.6865234,1.1245117c-0.640625,0.265625-1.3115234,0.3989258-2.0131836,0.3989258
	c-1.4506836,0-2.684082-0.5078125-3.6992188-1.5234375c-1.015625-1.015625-1.5234375-2.2490234-1.5234375-3.699707V1.4287616
	h-4.3525391v18.1713867H79.5259094z M66.4682922,18.1486492V19.5632h4.3525391v-9.0673838V1.3918128h-4.3525391v9.1040039
	c0,1.4018555-0.5073242,2.6347656-1.5229492,3.6992188c-1.0156288,1.015625-2.2490273,1.5234375-3.6997108,1.5234375v4.35254
	c1.0878906,0,2.0615234-0.1816406,2.9199257-0.5444336C65.0239563,19.1642742,65.7920227,18.7043133,66.4682922,18.1486492z
	 M43.618679,6.8327308c0.9916992-1.015625,2.2246094-1.5234375,3.6992188-1.5234375
	c0.7016602,0,1.3666992,0.1269531,1.9951172,0.3808594c0.6289063,0.2539063,1.1967773,0.6347656,1.7045898,1.1425781
	c1.015625,1.015625,1.5234375,2.2363276,1.5234375,3.6630855c0,1.4506836-0.5078125,2.684082-1.5234375,3.699707
	c-1.0639648,1.015625-2.296875,1.5234375-3.699707,1.5234375c-1.4506836,0-2.684082-0.5078125-3.6992188-1.5234375
	l-3.0830078,3.0830088c0.8701172,0.8706055,1.8857422,1.5532227,3.0463867,2.0493164
	c1.1606445,0.4951172,2.40625,0.7431641,3.7358398,0.7431641c1.3300781,0,2.5751953-0.2480469,3.7358398-0.7431641
	c1.1606445-0.4960938,2.1762695-1.1787109,3.046875-2.0493164c0.8701172-0.8706055,1.5537109-1.8862314,2.0493164-3.046876
	s0.7431641-2.40625,0.7431641-3.7358398c0-1.3056641-0.2475586-2.5385737-0.7431641-3.6992183
	s-1.1791992-2.1762695-2.0493164-3.046875c-0.8706055-0.8706055-1.8862305-1.5537109-3.046875-2.0493164
	c-1.1606445-0.4951172-2.4057617-0.7436523-3.7358398-0.7436523c-1.3295898,0-2.5751953,0.2485352-3.7358398,0.7436523
	c-1.1606445,0.4956055-2.1762695,1.1787109-3.0463867,2.0493164L43.618679,6.8327308z M23.3437786,19.5085125V9.4255037
	c0-1.1606445,0.4111328-2.1523433,1.2329102-2.9741206c0.8222656-0.8222656,1.8261719-1.2329102,3.0102539-1.2329102
	c1.1606445,0,2.1523438,0.4106445,2.9741211,1.2329102c0.8466797,0.8461914,1.2695313,1.8374019,1.2695313,2.9741206v10.0830088
	h4.3525372V9.4255037c0-1.1850586-0.1870117-2.2973628-0.5620117-3.3364253
	c-0.375-1.0400391-0.9067383-1.9467773-1.5961914-2.7207031c-0.6889648-0.7739258-1.5170898-1.3842773-2.4843731-1.831543
	c-0.9667969-0.4467773-2.0429688-0.6708984-3.2280273-0.6708984c-1.015625,0-1.934082,0.1757813-2.7563477,0.5258789
	c-0.8217773,0.3500977-1.5595703,0.8037109-2.2124023,1.3603516v-1.378418h-4.3525391v18.1347656H23.3437786z M8.1645794,12.3996248
	c0.3505859,0.0961914,0.6835938,0.2114258,0.9975586,0.3447266c0.3144531,0.1323242,0.5800781,0.3017578,0.7978516,0.5078125
	c0.2172852,0.2050781,0.3261719,0.453125,0.3261719,0.7431641c0,0.5317383-0.2475586,0.9189453-0.7431641,1.1606445
	s-0.9975586,0.362793-1.5053711,0.362793c-0.6528325,0-1.2695317-0.1450195-1.8496099-0.4350586
	c-0.5805664-0.2900391-1.1123047-0.75-1.5961914-1.378418l-3.0463867,3.046876
	c0.4350586,0.5078125,0.9672853,0.9667969,1.5957032,1.3779297c0.5566406,0.3383789,1.2636716,0.6533203,2.1215818,0.9433594
	c0.8588867,0.2900391,1.9042969,0.4350586,3.1376958,0.4350586c0.7978516,0,1.5717773-0.1147461,2.3212891-0.3447266
	s1.4145508-0.5864258,1.9946289-1.0698242c0.5805664-0.4838867,1.0463867-1.0942383,1.3964844-1.831543
	c0.3505859-0.7377939,0.5258789-1.6142588,0.5258789-2.6293955c0-0.9921875-0.265625-1.8378906-0.7978516-2.5390625
	c-0.5317383-0.7016602-1.1542969-1.2817383-1.8681641-1.7412109c-0.7128906-0.4594727-1.4145508-0.8100586-2.1035156-1.0517578
	s-1.1787109-0.4111323-1.46875-0.507812C8.1826458,7.7209144,7.9048133,7.6418128,7.5659461,7.5578284
	c-0.3383789-0.0854492-0.6708984-0.199707-0.9975586-0.3447266C6.2422156,7.0680823,5.9580359,6.8864417,5.7163367,6.6691566
	c-0.2416992-0.2177734-0.362793-0.4716797-0.362793-0.7617188c0-0.4116211,0.1811523-0.7617188,0.5439453-1.0517578
	c0.362793-0.2905273,0.9194336-0.4355469,1.668457-0.4355469c0.4838872,0,1.08252,0.1088867,1.7954106,0.3266602
	c0.7133789,0.2172852,1.3847656,0.7006836,2.0131836,1.4506836l3.0102539-3.0102539
	c-0.7734375-0.7744141-1.7954102-1.4272461-3.0649414-1.9584961C10.0503216,0.6969886,8.6787395,0.430387,7.2031531,0.430387
	c-0.9667969,0-1.8369141,0.1450195-2.6113281,0.4355469C3.8183877,1.155973,3.1655557,1.5666175,2.6333292,2.0988441
	C2.1015909,2.6305823,1.6963173,3.2472816,1.4184853,3.9489417c-0.277832,0.7006836-0.4174805,1.4746094-0.4174805,2.3212891
	c0,0.9667969,0.2666016,1.8007808,0.7983398,2.5024409c0.5317384,0.7011719,1.1547853,1.2875977,1.8676759,1.7592773
	c0.7133787,0.4711914,1.4086912,0.8398438,2.085449,1.105957c0.6772461,0.2661133,1.1606445,0.4355469,1.4506836,0.5078125
	C7.4936805,12.2184725,7.8144813,12.3029451,8.1645794,12.3996248z"/>
</svg>
